# xmcd
#
# Track frame offsets:
#  150
#  20861
#  38294
#  57710
#  73023
#  91454
#  108345
#  128020
#  147222
#  164785
#  192739
#
# Disc length: 2897 seconds
#
# Revision: 0
# Processed by: cddbd v1.5.1PL2 Copyright (c) Steve Scherf et al.
# Submitted via: Collectorz.com_Music_Collector 6.11
#
DISCID=a50b4f0b
DTITLE=Patti Sterling - Left Turn Only
DYEAR=1999
DGENRE=General Pop
TTITLE0=Surrender
TTITLE1=Woman
TTITLE2=Livin' My Life
TTITLE3=Waves Of Used To Be
TTITLE4=Back To You
TTITLE5=Bettin' On You
TTITLE6=I Belong To You
TTITLE7=Sassy
TTITLE8=Eye Of The Storm
TTITLE9=(DANCE) Livin' My Life
TTITLE10=Data track
EXTD=
EXTT0=
EXTT1=
EXTT2=
EXTT3=
EXTT4=
EXTT5=
EXTT6=
EXTT7=
EXTT8=
EXTT9=
EXTT10=
PLAYORDER=
